<?xml version="1.0" encoding="utf-8"?>
<!-- Generator: Adobe Illustrator 18.0.0, SVG Export Plug-In . SVG Version: 6.00 Build 0)  -->
<!DOCTYPE svg PUBLIC "-//W3C//DTD SVG 1.1//EN" "http://www.w3.org/Graphics/SVG/1.1/DTD/svg11.dtd">
<svg version="1.1" id="Layer_1" xmlns="http://www.w3.org/2000/svg" xmlns:xlink="http://www.w3.org/1999/xlink" x="0px" y="0px"
	 viewBox="0 0 458.7 458.7" enable-background="new 0 0 458.7 458.7" xml:space="preserve">
<path fill="#1C78A6" d="M378.8,458.7H79.9C35.8,458.7,0,422.9,0,378.8V79.9C0,35.8,35.8,0,79.9,0h298.9c44.1,0,79.9,35.8,79.9,79.9
	v298.9C458.7,422.9,422.9,458.7,378.8,458.7z"/>
<g id="Layer_2">
	<g id="Layer_1-2">
		<path fill="#FFFFFF" d="M86.6,238.7H49.2l39.5-41.4c0.6-0.5,1-1.1,1.3-1.8c0.4-0.7,0.6-1.5,0.6-2.2v-0.5c0-0.8-0.2-1.6-0.6-2.3
			c-0.3-0.7-0.8-1.4-1.4-2c-0.5-0.4-1.2-0.8-1.8-1.1c-0.6-0.3-1.2-0.4-1.8-0.5H38c-1.5,0-3,0.6-4,1.7c-1.1,1.1-1.7,2.5-1.7,4
			c0,1.5,0.6,3,1.7,4c1.1,1.1,2.5,1.7,4,1.7h34.8l-39.7,41.7c-1.8,1.5-2.3,4.1-1.3,6.2c0.3,0.7,0.7,1.3,1.2,1.8
			c0.5,0.5,1.2,1,1.9,1.2c0.7,0.3,1.5,0.5,2.2,0.5h49.4c0.8,0,1.6-0.2,2.3-0.5c0.7-0.3,1.3-0.7,1.9-1.2c0.5-0.5,0.9-1.1,1.2-1.8
			c0.3-0.7,0.5-1.5,0.5-2.2c0-1.5-0.6-2.9-1.7-3.9c-1.1-1-2.6-1.6-4.1-1.6"/>
		<path fill="#FFFFFF" d="M282.3,186.9h-0.3c-4.4,0-8.8,0.9-12.9,2.6c-3.9,1.7-7.4,4.1-10.4,7.1c-3.1,3.1-5.6,6.8-7.3,10.9
			c-1.7,4-2.6,8.3-2.5,12.6v23.7c0,0.8,0.2,1.6,0.5,2.3c0.3,0.7,0.7,1.3,1.3,1.8c0.5,0.5,1.2,1,1.9,1.2c0.7,0.3,1.5,0.4,2.3,0.4
			c1.5,0,2.9-0.6,3.9-1.7c1.1-1.1,1.6-2.6,1.5-4.1v-23.7c0-2.9,0.6-5.8,1.8-8.4c1.1-2.6,2.7-4.9,4.7-6.9c2-2,4.3-3.6,6.9-4.7
			c2.6-1.2,5.5-1.8,8.3-1.8h0.3c1.6,0,3.1-0.5,4.2-1.6c1.2-1,1.8-2.5,1.7-4.1c0.1-1.5-0.5-3-1.5-4.1
			C285.5,187.4,283.9,186.8,282.3,186.9"/>
		<path fill="#FFFFFF" d="M350.3,186.9c-1.5,0-3,0.6-4.1,1.7c-1.2,1-1.8,2.5-1.8,4.1v26.6c0,2.6-0.5,5.2-1.5,7.6
			c-1,2.3-2.3,4.3-4,6.1c-1.7,1.8-3.8,3.2-6,4.1c-4.8,2-10.1,2-14.9,0c-2.3-1-4.3-2.3-6.1-4c-1.7-1.7-3.1-3.8-4.1-6
			c-1-2.4-1.5-4.9-1.5-7.5v-26.9c0-0.8-0.1-1.6-0.5-2.3c-0.3-0.7-0.7-1.3-1.2-1.8c-0.6-0.5-1.2-0.9-1.9-1.2
			c-0.7-0.3-1.4-0.4-2.1-0.5c-3.1-0.1-5.7,2.4-5.7,5.5c0,0.1,0,0.1,0,0.2v26.9c0,7.2,2.5,14.1,7.1,19.6c2.2,2.7,4.9,5,7.8,6.8
			c3,1.8,6.4,3.1,9.8,3.7v16.5c-0.1,3.1,2.4,5.7,5.5,5.8c0.1,0,0.2,0,0.3,0c0.8,0,1.5-0.1,2.2-0.4c0.7-0.3,1.3-0.7,1.8-1.2
			c0.5-0.5,1-1.2,1.2-1.9c0.3-0.7,0.4-1.5,0.4-2.3v-16.5c3.5-0.6,6.9-1.8,9.9-3.7c3-1.7,5.7-4,7.9-6.7c2.2-2.7,4-5.8,5.2-9.1
			c1.3-3.4,1.9-7,1.9-10.7v-26.8c0-1.5-0.6-3-1.6-4.1C353.4,187.4,351.9,186.8,350.3,186.9"/>
		<path fill="#FFFFFF" d="M425,206.1c-1.6-3.7-3.9-7.1-6.7-10c-2.9-2.9-6.3-5.2-10.1-6.7c-7.9-3.3-16.8-3.3-24.7,0
			c-3.7,1.6-7.1,4-10,6.9c-5.9,6-9.2,14.1-9.2,22.5c0,4.3,0.8,8.5,2.5,12.4c1.5,3.9,3.8,7.4,6.7,10.4c2.9,2.8,6.3,5,9.9,6.6
			c3.9,1.7,8.1,2.5,12.3,2.5c3.7,0,7.4-0.6,10.8-1.9c3.3-1.2,6.4-2.9,9.2-5.2v0.9c0,1.5,0.5,3,1.6,4.2c1,1.2,2.5,1.8,4.1,1.8
			c1.6,0,3.1-0.6,4.2-1.8c1.1-1.1,1.7-2.6,1.7-4.2v-25.9C427.4,214.2,426.6,210,425,206.1 M414.7,226.8c-1,2.4-2.4,4.6-4.2,6.5
			c-1.8,1.8-4,3.3-6.4,4.4c-7.6,3.3-16.4,1.5-22.1-4.4c-1.8-1.9-3.2-4.1-4.2-6.5c-2-5-2-10.6,0-15.5c1-2.4,2.5-4.6,4.2-6.4
			c5.8-5.8,14.6-7.5,22.1-4.3c2.4,1,4.5,2.5,6.4,4.3c1.8,1.7,3.2,3.8,4.2,6.1c2,5,2,10.6,0,15.5"/>
		<path fill="#FFFFFF" d="M230.9,196.3c-2.9-2.9-6.3-5.2-10-6.8c-3.9-1.7-8.2-2.6-12.4-2.6c-4.2,0-8.4,0.9-12.3,2.6
			c-3.8,1.6-7.2,3.9-10.1,6.8c-1.1,1.1-2.1,2.3-3.1,3.5l9.9,6.1c0.4-0.5,0.8-0.9,1.2-1.3c1.9-1.8,4-3.3,6.4-4.3
			c2.5-1.1,5.2-1.6,7.9-1.6c2.7,0,5.5,0.5,8,1.6c2.5,1,4.7,2.5,6.6,4.3c1.8,1.8,3.3,4,4.3,6.4c2,5,2,10.6,0,15.5
			c-1,2.4-2.5,4.7-4.3,6.5c-1.8,1.8-4,3.3-6.4,4.4c-2.5,1-5.2,1.6-8,1.6c-2.7,0-5.4-0.5-7.9-1.6l-0.9-0.5l-5.7-4.6l-1.4-1.1
			l-16.1-12.7l-8.5-6.8l0,0l-19.7-16.1c-1.2-1.1-2.5-2.2-3.8-3.1c-1.7-1.2-3.5-2.1-5.4-3c-8-3.4-17-3.4-25,0
			c-3.8,1.6-7.2,3.9-10.1,6.8c-2.9,3-5.2,6.5-6.8,10.4c-1.7,3.9-2.5,8.1-2.5,12.4c0,4.3,0.8,8.5,2.5,12.4
			c3.3,7.5,9.4,13.4,16.9,16.6c7.9,3.3,16.8,3.3,24.8,0c6-2.5,11-6.8,14.5-12.3l-8.8-7.8c-0.9,1.9-2.2,3.7-3.7,5.2
			c-1.7,1.8-3.8,3.2-6,4.3c-5.1,2.1-10.8,2.1-15.8,0c-2.4-1-4.6-2.5-6.4-4.4c-1.8-1.9-3.3-4-4.4-6.4c-2.1-5-2.1-10.6,0-15.5
			c1.1-2.4,2.5-4.6,4.4-6.4c1.9-1.8,4-3.3,6.4-4.3c5.1-2.1,10.8-2.1,15.8,0c0.6,0.3,1.3,0.6,1.9,0.9l0,0l5.6,4.6l16.1,13.2l8.8,7.1
			l20,16.3l2.2,1.8l0.4,0.4l0,0c1.9,1.4,4,2.6,6.2,3.5c3.9,1.7,8.1,2.5,12.3,2.5c4.3,0,8.5-0.8,12.4-2.5c3.8-1.6,7.2-3.9,10-6.8
			c6-5.9,9.3-14,9.3-22.4C240.1,210.3,236.8,202.3,230.9,196.3"/>
	</g>
</g>
<text transform="matrix(1.1859 0 0 1 341.3873 288.5518)" fill="#FDFDFE" font-family="'Microsoft-Yi-Baiti'" font-size="44.4794">POS</text>
</svg>
